<?xml version="1.0" standalone="no"?>
<!DOCTYPE svg PUBLIC "-//W3C//DTD SVG 20010904//EN"
 "http://www.w3.org/TR/2001/REC-SVG-20010904/DTD/svg10.dtd">
<svg version="1.0" xmlns="http://www.w3.org/2000/svg"
 width="300.000000pt" height="71.000000pt" viewBox="0 0 300.000000 71.000000"
 preserveAspectRatio="xMidYMid meet">
<metadata>
Created by potrace 1.10, written by Peter Selinger 2001-2011
</metadata>
<g transform="translate(0.000000,71.000000) scale(0.100000,-0.100000)"
fill="#000000" stroke="none">
<path d="M57 683 c-8 -16 -17 -70 -20 -122 -4 -64 -11 -99 -21 -110 -20 -22
-20 -41 -2 -41 30 0 46 42 46 120 0 80 13 145 32 156 6 4 25 11 42 15 28 6 26
7 -16 8 -42 1 -49 -2 -61 -26z"/>
<path d="M180 681 c0 -25 -4 -30 -27 -33 l-28 -3 -5 -100 c-6 -101 -16 -136
-47 -154 -16 -8 -15 -12 9 -34 28 -26 36 -61 41 -177 2 -63 3 -65 31 -70 24
-4 30 -10 30 -32 2 -25 -2 -28 -29 -28 -69 0 -95 50 -95 180 0 78 -16 120 -46
120 -18 0 -18 -19 0 -39 8 -9 17 -48 20 -91 8 -110 15 -135 45 -164 40 -38 83
-44 110 -14 15 15 21 32 18 50 -2 16 1 28 6 28 5 0 29 10 53 21 l42 22 28 -22
c34 -26 74 -27 104 -1 29 25 32 25 72 0 18 -11 41 -20 50 -20 14 0 16 -5 9
-22 -26 -70 58 -105 119 -50 36 31 49 78 50 169 0 54 4 67 28 95 44 50 46 73
10 114 -29 32 -32 43 -39 132 -10 127 -21 152 -68 151 -35 -1 -35 -1 -10 -10
37 -14 49 -48 50 -137 0 -96 16 -146 47 -150 17 -3 22 -10 22 -33 0 -18 -5
-29 -13 -29 -8 0 -22 -9 -33 -21 -15 -16 -20 -42 -24 -130 -6 -124 -16 -142
-82 -154 -37 -7 -38 -7 -38 24 0 23 5 31 18 31 40 1 46 16 52 126 6 98 8 108
32 129 l25 21 -28 32 c-27 30 -29 38 -29 118 0 97 -10 124 -45 124 -21 0 -25
5 -25 30 0 17 -4 30 -10 30 -5 0 -10 -16 -10 -35 0 -30 -3 -35 -22 -35 -13 0
-34 -9 -48 -20 -32 -25 -43 -25 -65 0 -23 26 -65 26 -99 -1 -25 -20 -66 -19
-66 1 0 5 -13 11 -30 15 -26 6 -30 11 -30 41 0 24 -5 34 -15 34 -10 0 -15 -10
-15 -29z m78 -87 c36 -25 27 -89 -15 -105 -62 -23 -110 54 -63 101 24 24 48
25 78 4z m173 -5 c27 -27 21 -67 -14 -93 -26 -19 -30 -19 -55 -5 -37 20 -43
80 -10 103 30 22 54 20 79 -5z m159 3 c26 -21 30 -67 9 -87 -26 -25 -55 -26
-82 -4 -32 25 -35 61 -7 89 25 25 51 25 80 2z m-263 -118 c3 -8 -1 -22 -9 -30
-12 -12 -17 -12 -33 0 -16 12 -17 16 -6 30 17 20 40 21 48 0z m157 10 c20 -8
20 -28 0 -44 -12 -11 -18 -10 -31 3 -13 13 -14 19 -3 31 14 18 13 18 34 10z
m-222 -61 c22 -20 23 -61 1 -85 -34 -38 -103 -11 -103 40 0 54 62 81 102 45z
m178 -15 c13 -25 13 -31 0 -55 -31 -56 -110 -36 -110 27 0 63 79 83 110 28z
m146 24 c24 -16 35 -51 23 -74 -16 -30 -28 -38 -61 -38 -28 0 -58 31 -58 60 0
29 30 60 58 60 15 0 32 -4 38 -8z m-259 -121 c10 -16 8 -22 -8 -37 -18 -16
-21 -16 -35 -2 -13 13 -14 19 -2 37 16 26 30 27 45 2z m167 1 c15 -18 15 -20
-4 -37 -16 -14 -22 -15 -35 -5 -18 15 -19 32 -3 48 16 16 22 15 42 -6z m-326
-19 c-5 -23 -23 -20 -26 4 -3 18 0 21 13 17 9 -4 15 -13 13 -21z m468 11 c-3
-9 -6 -18 -6 -20 0 -2 -7 -4 -15 -4 -18 0 -19 12 -3 28 17 17 31 15 24 -4z
m-366 -53 c25 -47 -1 -101 -48 -101 -54 0 -81 62 -45 102 22 25 79 24 93 -1z
m162 2 c24 -21 23 -58 -2 -83 -41 -41 -100 -13 -100 46 0 51 62 74 102 37z
m176 -15 c26 -54 -27 -105 -83 -80 -33 15 -42 55 -20 88 13 21 23 25 53 22 29
-2 40 -9 50 -30z"/>
<path d="M986 678 c-3 -18 -5 -53 -5 -78 0 -25 -2 -112 -6 -195 -9 -227 -2
-245 94 -245 78 0 91 15 92 106 0 38 4 89 7 113 l7 44 50 -108 c63 -136 80
-155 144 -155 62 0 76 15 141 155 61 128 68 125 69 -22 1 -114 14 -133 89
-133 77 0 92 19 92 116 0 97 14 129 55 129 22 0 30 -5 32 -20 17 -119 51 -178
125 -216 41 -21 135 -28 160 -12 7 4 50 6 96 5 67 -3 83 -1 88 12 3 9 12 16
20 16 11 0 14 -20 14 -95 0 -78 3 -95 15 -95 13 0 15 37 15 278 l0 277 65 0
c62 0 65 -1 65 -24 l0 -25 20 22 c41 44 134 48 195 8 14 -9 37 -35 53 -58 22
-34 27 -52 27 -102 -1 -123 -80 -203 -191 -194 -39 3 -61 11 -79 28 l-25 23 0
-116 c0 -96 3 -117 15 -117 16 0 26 46 23 105 l-3 40 53 1 c99 3 122 12 179
70 46 48 53 52 53 32 0 -13 9 -38 20 -55 19 -32 22 -33 85 -33 51 0 65 3 65
15 0 12 -14 15 -65 15 l-65 0 0 183 0 182 65 -3 65 -4 0 81 0 81 -27 0 -27 0
22 -16 c15 -10 22 -25 22 -48 0 -59 -59 -87 -100 -46 -33 33 -22 88 20 103 8
3 0 6 -17 6 -39 1 -49 -23 -40 -97 5 -33 2 -53 -8 -66 -8 -11 -15 -30 -15 -43
0 -13 -2 -23 -5 -23 -3 0 -22 19 -42 41 -21 23 -57 50 -81 60 -46 20 -117 25
-127 10 -3 -6 -46 -9 -94 -8 -80 2 -92 0 -113 -20 l-24 -23 -20 20 c-23 24
-83 34 -128 22 -21 -6 -41 -4 -61 4 -38 17 -125 18 -125 2 0 -6 -3 -9 -6 -5
-3 3 -25 -5 -49 -17 -43 -23 -43 -23 -63 -4 -22 23 -79 26 -124 9 -16 -6 -30
-7 -33 -1 -7 12 -273 12 -295 0 -8 -4 -26 -29 -38 -54 -13 -25 -27 -48 -31
-51 -5 -3 -17 12 -26 33 -33 72 -50 82 -131 82 l-72 0 10 38 c6 25 6 47 -1 65
-10 26 -13 27 -85 27 l-75 0 -5 -32z m128 6 c22 -21 20 -60 -4 -84 -24 -24
-48 -25 -78 -4 -25 17 -31 71 -10 92 17 17 74 15 92 -4z m1039 -146 c25 -18
28 -18 25 -4 -3 15 7 18 65 19 l67 2 0 -182 0 -183 -65 0 c-60 0 -65 2 -65 22
l0 21 -25 -23 c-16 -15 -41 -24 -74 -28 -96 -9 -177 57 -196 160 -10 51 17
137 54 172 59 57 152 67 214 24z m-1015 -167 l2 -181 -70 0 -70 0 0 183 0 183
68 -2 67 -1 3 -182z m191 89 c31 -75 41 -91 47 -75 4 11 22 53 39 93 l32 74
67 1 c49 2 66 -1 64 -11 -2 -6 -37 -89 -78 -182 l-75 -170 -56 0 -56 0 -77
173 c-43 94 -80 177 -82 182 -3 6 23 10 66 10 l70 0 39 -95z m403 64 l-4 -29
30 29 c21 20 44 30 76 33 l46 6 0 -61 0 -60 -49 1 c-27 0 -56 -5 -65 -12 -26
-22 -39 -90 -32 -168 l6 -73 -70 0 -70 0 0 178 c0 98 2 181 4 183 2 2 33 4 68
3 l63 -1 -3 -29z"/>
<path d="M2040 430 c-31 -31 -27 -93 6 -119 53 -42 120 -16 130 49 8 52 -24
90 -77 90 -26 0 -46 -7 -59 -20z m88 -32 c30 -30 0 -75 -43 -64 -19 5 -25 13
-25 35 0 15 3 31 7 34 11 11 48 8 61 -5z"/>
<path d="M2994 370 c0 -91 2 -128 3 -82 2 45 2 119 0 165 -1 45 -3 8 -3 -83z"/>
<path d="M2530 428 c-13 -14 -20 -35 -20 -59 0 -69 78 -102 134 -58 35 27 36
86 3 117 -31 30 -89 30 -117 0z m101 -40 c8 -15 7 -24 -7 -39 -22 -25 -49 -24
-68 2 -17 26 -11 48 18 59 27 9 44 3 57 -22z"/>
</g>
</svg>
